# xmcd
#
# Track frame offsets:
#	150
#	8933
#	22854
#	36173
#	49198
#	63331
#	76205
#	94512
#	111308
#	127060
#	145839
#
# Disc length: 2208 seconds
#
# Revision: 1
# Processed by: cddbd v1.5.2PL0 Copyright (c) Steve Scherf et al.
# Submitted via: EasyCDDAExtractor 7.0.5.4
#
DISCID=8a089e0b
DTITLE=The Whispertown 2000 - Swim
DYEAR=2008
DGENRE=Alt.-Country
TTITLE0=103
TTITLE1=Done With Love
TTITLE2=Pushing Oars
TTITLE3=No Dope
TTITLE4=Old Times
TTITLE5=Erase The Lines
TTITLE6=Atlantis
TTITLE7=Lock And Key
TTITLE8=From The Start/Jamboree
TTITLE9=Ebb And Flow
TTITLE10=Mountain
EXTD=
EXTT0=
EXTT1=
EXTT2=
EXTT3=
EXTT4=
EXTT5=
EXTT6=
EXTT7=
EXTT8=
EXTT9=
EXTT10=
PLAYORDER=
